<?xml version="1.0" encoding="UTF-8" standalone="no"?>
<!DOCTYPE svg PUBLIC "-//W3C//DTD SVG 1.1//EN" "http://www.w3.org/Graphics/SVG/1.1/DTD/svg11.dtd">
<svg width="100%" height="100%" viewBox="0 0 512 512" version="1.1" xmlns="http://www.w3.org/2000/svg" xmlns:xlink="http://www.w3.org/1999/xlink" xml:space="preserve" xmlns:serif="http://www.serif.com/" style="fill-rule:evenodd;clip-rule:evenodd;stroke-linejoin:round;stroke-miterlimit:2;">
    <g transform="matrix(2.75462,0,0,2.54872,-193.184,-173.556)">
        <rect x="70.131" y="68.096" width="185.869" height="200.886"/>
    </g>
    <g transform="matrix(1.98739,0,0,1.25835,-168.33,-84.4016)">
        <path d="M213.511,117.934C266.831,117.934 310.12,186.303 310.12,270.515C310.12,354.726 266.831,423.096 213.511,423.096C160.191,423.096 116.902,354.726 116.902,270.515C116.902,186.303 160.191,117.934 213.511,117.934ZM213.511,156.079C173.521,156.079 141.054,207.356 141.054,270.515C141.054,333.673 173.521,384.95 213.511,384.95C253.501,384.95 285.968,333.673 285.968,270.515C285.968,207.356 253.501,156.079 213.511,156.079Z" style="fill:white;"/>
    </g>
    <g transform="matrix(9.60194,0,0,9.60194,140.787,135.976)">
        <path d="M17,3C17.505,3 17.934,3.382 17.993,3.883L18,4L18,6.17C18.32,6.057 18.657,6 18.997,6C20.643,6 21.997,7.354 21.997,9C21.997,10.645 20.643,12 18.997,12C18.657,12 18.32,11.942 18,11.829L18,12C18,14.916 15.875,17.43 13,17.917L13,20L16,20C16.548,20.001 16.999,20.452 16.999,21C16.999,21.504 16.618,21.933 16.117,21.993L16,22L8,22C7.452,21.999 7.001,21.548 7.001,21C7.001,20.496 7.382,20.067 7.883,20.007L8,20L11,20L11,17.917C8.207,17.444 6.111,15.056 6.004,12.225L6,12L6,11.829C5.679,11.943 5.34,12.001 4.999,12.001C3.419,12.001 2.096,10.753 2.004,9.176L2.001,9L2.006,8.824C2.098,7.247 3.421,5.998 5.001,5.998C5.342,5.998 5.68,6.056 6.001,6.17L6,4C6,3.451 6.451,3 7,3L17,3ZM5,8C4.451,8 4,8.451 4,9C4,9.549 4.451,10 5,10C5.549,10 6,9.549 6,9C6,8.451 5.549,8 5,8ZM19,8C18.451,8 18,8.451 18,9C18,9.549 18.451,10 19,10C19.549,10 20,9.549 20,9C20,8.451 19.549,8 19,8Z" style="fill:white;fill-rule:nonzero;"/>
    </g>
</svg>
